<svg xmlns="http://www.w3.org/2000/svg" version="1.1" xmlns:xlink="http://www.w3.org/1999/xlink" xmlns:svgjs="http://svgjs.com/svgjs" viewBox="0 0 24 24" height="24" width="24"><title>Exported from Streamline App (https://app.streamlineicons.com)</title><g transform="matrix(1,0,0,1,0,0)"><path d="M 4.5,11c2.209,0,4,1.791,4,4s-1.791,4-4,4s-4-1.791-4-4S2.291,11,4.5,11z " stroke="#000000" fill="none" stroke-width="1" stroke-linecap="round" stroke-linejoin="round"></path><path d="M 19.5,11c2.209,0,4,1.791,4,4 s-1.791,4-4,4s-4-1.791-4-4S17.291,11,19.5,11z " stroke="#000000" fill="none" stroke-width="1" stroke-linecap="round" stroke-linejoin="round"></path><path d="M 11,15.001l5.684-7.646L9,10l-4.5,5H11L7.75,7 " stroke="#000000" fill="none" stroke-width="1" stroke-linecap="round" stroke-linejoin="round"></path><path d="M 19.5,15l-3.307-8.977 c-0.095-0.259,0.037-0.547,0.296-0.642c0.017-0.006,0.034-0.012,0.052-0.016L18,5 " stroke="#000000" fill="none" stroke-width="1" stroke-linecap="round" stroke-linejoin="round"></path><path d="M 6.5,7h3" stroke="#000000" fill="none" stroke-width="1" stroke-linecap="round" stroke-linejoin="round"></path></g></svg>