<?xml version="1.0" encoding="UTF-8"?>
<svg xmlns="http://www.w3.org/2000/svg" xmlns:xlink="http://www.w3.org/1999/xlink" xmlns:svgjs="http://svgjs.com/svgjs" version="1.1" viewBox="0 0 64 64" height="64" width="64">
  <title>Exported from Streamline App (https://app.streamlineicons.com)</title>
  <g transform="matrix(2.6666666666666665,0,0,2.6666666666666665,0,0)">
    <path d="M 21.4,17.2c-0.095,0.465-0.504,0.8-0.979,0.8H5.96c-0.552,0-1-0.449-0.999-1.001 c0-0.067,0.007-0.134,0.02-0.199l2.083-10C7.159,6.335,7.568,6,8.043,6H22.5c0.552,0,1,0.449,0.999,1.001 c0,0.067-0.007,0.134-0.02,0.199L21.4,17.2z " stroke="#065f67" fill="none" stroke-width="1" stroke-linecap="round" stroke-linejoin="round"></path>
    <path d="M 7.427,6.212l5.117,5.511c0.68,0.732,1.795,0.85,2.613,0.277l8.095-5.666 " stroke="#065f67" fill="none" stroke-width="1" stroke-linecap="round" stroke-linejoin="round"></path>
    <path d="M 0.5,7h4 " stroke="#065f67" fill="none" stroke-width="1" stroke-linecap="round" stroke-linejoin="round"></path>
    <path d="M 0.5,10h3 " stroke="#065f67" fill="none" stroke-width="1" stroke-linecap="round" stroke-linejoin="round"></path>
    <path d="M 0.5,13h2" stroke="#065f67" fill="none" stroke-width="1" stroke-linecap="round" stroke-linejoin="round"></path>
  </g>
</svg>
