<?xml version="1.0" encoding="UTF-8"?>
<svg xmlns="http://www.w3.org/2000/svg" xmlns:xlink="http://www.w3.org/1999/xlink" xmlns:svgjs="http://svgjs.com/svgjs" version="1.1" viewBox="0 0 64 64" height="64" width="64">
  <title>Exported from Streamline App (https://app.streamlineicons.com)</title>
  <g transform="matrix(2.6666666666666665,0,0,2.6666666666666665,0,0)">
    <path d="M 3.5,8.5h-3v-3c0-0.552,0.448-1,1-1h21c0.552,0,1,0.448,1,1v2c0,0.552-0.448,1-1,1h-11 " stroke="#065f67" fill="none" stroke-width="1" stroke-linecap="round" stroke-linejoin="round"></path>
    <path d="M 3,4.499l18.5-4 " stroke="#065f67" fill="none" stroke-width="1" stroke-linecap="round" stroke-linejoin="round"></path>
    <path d="M 0.5,8.5v14c0,0.552,0.448,1,1,1h21c0.552,0,1-0.448,1-1v-9c0-0.552-0.448-1-1-1h-3l-2,2h-4v-6 " stroke="#065f67" fill="none" stroke-width="1" stroke-linecap="round" stroke-linejoin="round"></path>
    <path d="M 3.5,4.5h8l0,0v5 c0,0.552-0.448,1-1,1h-6c-0.552,0-1-0.448-1-1V4.5L3.5,4.5z " stroke="#065f67" fill="none" stroke-width="1" stroke-linecap="round" stroke-linejoin="round"></path>
    <path d="M 5.5,6.499h1 " stroke="#065f67" fill="none" stroke-width="1" stroke-linecap="round" stroke-linejoin="round"></path>
    <path d="M 8.5,6.499h1 " stroke="#065f67" fill="none" stroke-width="1" stroke-linecap="round" stroke-linejoin="round"></path>
    <path d="M 8.5,8.499h1 " stroke="#065f67" fill="none" stroke-width="1" stroke-linecap="round" stroke-linejoin="round"></path>
    <path d="M 5.5,8.499h1 " stroke="#065f67" fill="none" stroke-width="1" stroke-linecap="round" stroke-linejoin="round"></path>
    <path d="M 0.5,20.499h23 " stroke="#065f67" fill="none" stroke-width="1" stroke-linecap="round" stroke-linejoin="round"></path>
    <path d="M 13.5,14.499h-2" stroke="#065f67" fill="none" stroke-width="1" stroke-linecap="round" stroke-linejoin="round"></path>
  </g>
</svg>
