<?xml version="1.0" encoding="UTF-8"?>
<svg xmlns="http://www.w3.org/2000/svg" xmlns:xlink="http://www.w3.org/1999/xlink" xmlns:svgjs="http://svgjs.com/svgjs" version="1.1" viewBox="0 0 64 64" height="64" width="64">
  <title>Exported from Streamline App (https://app.streamlineicons.com)</title>
  <g transform="matrix(2.6666666666666665,0,0,2.6666666666666665,0,0)">
    <path d="M 23.5,1.5c0-0.552-0.448-1-1-1h-18c-0.552,0-1,0.448-1,1v18c0,0.552,0.448,1,1,1h18c0.552,0,1-0.448,1-1V1.5z " stroke="#065f67" fill="none" stroke-width="1" stroke-linecap="round" stroke-linejoin="round"></path>
    <path d="M 7.496,4.497h12 " stroke="#065f67" fill="none" stroke-width="1" stroke-linecap="round" stroke-linejoin="round"></path>
    <path d="M 7.496,8.497h12 " stroke="#065f67" fill="none" stroke-width="1" stroke-linecap="round" stroke-linejoin="round"></path>
    <path d="M 7.496,12.497h12 " stroke="#065f67" fill="none" stroke-width="1" stroke-linecap="round" stroke-linejoin="round"></path>
    <path d="M 7.496,16.497H13 " stroke="#065f67" fill="none" stroke-width="1" stroke-linecap="round" stroke-linejoin="round"></path>
    <path d="M 3.5,4.5h-2c-0.552,0-1,0.448-1,1v17c0,0.552,0.448,1,1,1h17 c0.552,0,1-0.448,1-1v-2" stroke="#065f67" fill="none" stroke-width="1" stroke-linecap="round" stroke-linejoin="round"></path>
  </g>
</svg>
