<svg xmlns="http://www.w3.org/2000/svg" version="1.1" xmlns:xlink="http://www.w3.org/1999/xlink" xmlns:svgjs="http://svgjs.com/svgjs" viewBox="0 0 64 64" height="64" width="64"><title>Exported from Streamline App (https://app.streamlineicons.com)</title><g transform="matrix(2.6666666666666665,0,0,2.6666666666666665,0,0)"><path d="M 22.5,21.5c0,1.105-0.895,2-2,2h-17c-1.105,0-2-0.895-2-2v-4h21V21.5z " stroke="#065f67" fill="none" stroke-width="1" stroke-linecap="round" stroke-linejoin="round"></path><path d="M 17.5,0.5L15,3 c-0.38,0.469-1.556,0.5-1.556,0.5H7.556C7.556,3.5,6.38,3.469,6,3L3.5,0.5 " stroke="#065f67" fill="none" stroke-width="1" stroke-linecap="round" stroke-linejoin="round"></path><path d="M 3.5,17.5v-17h14V6 " stroke="#065f67" fill="none" stroke-width="1" stroke-linecap="round" stroke-linejoin="round"></path><path d="M 10.5,3.531V9 " stroke="#065f67" fill="none" stroke-width="1" stroke-linecap="round" stroke-linejoin="round"></path><path d="M 11.044,17.5 l-1.888-4.533c-0.227-0.542,0.029-1.165,0.571-1.392c0.001,0,0.001-0.001,0.002-0.001l9.836-4.1 c0.543-0.226,1.167,0.031,1.394,0.574l2.459,5.9c0.226,0.543-0.031,1.167-0.574,1.393L17.669,17.5 " stroke="#065f67" fill="none" stroke-width="1" stroke-linecap="round" stroke-linejoin="round"></path><path d="M 9.36,13.459l5.865,0.213 c0.752,0.096,1.499-0.215,1.961-0.817l3.978-4.314 " stroke="#065f67" fill="none" stroke-width="1" stroke-linecap="round" stroke-linejoin="round"></path><path d="M 23.5,17.5h-23" stroke="#065f67" fill="none" stroke-width="1" stroke-linecap="round" stroke-linejoin="round"></path></g></svg>