<?xml version="1.0" encoding="UTF-8"?>
<svg xmlns="http://www.w3.org/2000/svg" xmlns:xlink="http://www.w3.org/1999/xlink" xmlns:svgjs="http://svgjs.com/svgjs" version="1.1" viewBox="0 0 64 64" height="64" width="64">
  <title>Exported from Streamline App (https://app.streamlineicons.com)</title>
  <g transform="matrix(2.6666666666666665,0,0,2.6666666666666665,0,0)">
    <path d="M 12,8.5c0.405,0,0.754-0.286,0.833-0.684l1.109-5.573c0.108-0.542-0.243-1.068-0.785-1.176 c-0.032-0.006-0.065-0.011-0.098-0.015C12.709,1.016,12.357,1,12,1s-0.71,0.018-1.058,0.052c-0.55,0.054-0.952,0.543-0.898,1.093 c0.003,0.033,0.008,0.066,0.015,0.098l1.11,5.575C11.247,8.215,11.596,8.501,12,8.5z " stroke="#b9d40d" fill="none" stroke-width="1" stroke-linecap="round" stroke-linejoin="round"></path>
    <path d="M 9.524,9.523 c0.286-0.287,0.33-0.735,0.105-1.072L6.472,3.726C6.167,3.266,5.546,3.14,5.086,3.445C5.056,3.465,5.027,3.486,5,3.509 c-0.267,0.222-0.528,0.459-0.784,0.71S3.724,4.731,3.509,5c-0.351,0.426-0.29,1.057,0.137,1.408 c0.026,0.021,0.053,0.042,0.081,0.06l4.726,3.16C8.789,9.853,9.238,9.809,9.524,9.523z " stroke="#b9d40d" fill="none" stroke-width="1" stroke-linecap="round" stroke-linejoin="round"></path>
    <path d="M 8.5,12 c0.001-0.406-0.286-0.755-0.684-0.834l-5.575-1.109C1.7,9.948,1.172,10.299,1.064,10.841c-0.007,0.033-0.012,0.067-0.015,0.1 C1.016,11.289,1,11.641,1,12s0.017,0.709,0.051,1.057c0.053,0.55,0.542,0.952,1.092,0.899c0.034-0.003,0.067-0.008,0.1-0.015 l5.577-1.11C8.216,12.751,8.5,12.404,8.5,12z " stroke="#b9d40d" fill="none" stroke-width="1" stroke-linecap="round" stroke-linejoin="round"></path>
    <path d="M 9.524,14.474c-0.289-0.285-0.739-0.327-1.075-0.1l-4.722,3.152 c-0.459,0.307-0.583,0.928-0.276,1.387c0.018,0.028,0.038,0.054,0.059,0.08c0.222,0.27,0.459,0.532,0.71,0.785 s0.513,0.49,0.785,0.711c0.427,0.351,1.057,0.289,1.407-0.138c0.021-0.026,0.041-0.053,0.06-0.08l3.157-4.727 C9.854,15.208,9.81,14.76,9.524,14.474z " stroke="#b9d40d" fill="none" stroke-width="1" stroke-linecap="round" stroke-linejoin="round"></path>
    <path d="M 12,15.5c-0.406-0.001-0.755,0.286-0.834,0.684l-1.107,5.568 c-0.113,0.541,0.233,1.071,0.774,1.184c0.035,0.007,0.07,0.013,0.106,0.016c0.349,0.035,0.7,0.052,1.06,0.052 s0.712-0.017,1.061-0.052c0.55-0.055,0.95-0.545,0.895-1.095c-0.004-0.035-0.009-0.07-0.016-0.105l-1.11-5.571 C12.751,15.785,12.404,15.5,12,15.5z " stroke="#b9d40d" fill="none" stroke-width="1" stroke-linecap="round" stroke-linejoin="round"></path>
    <path d="M 14.474,14.474c-0.285,0.288-0.327,0.738-0.1,1.074l3.156,4.723 c0.306,0.46,0.927,0.584,1.387,0.277c0.028-0.019,0.055-0.039,0.081-0.06c0.27-0.222,0.531-0.459,0.784-0.71 s0.49-0.513,0.712-0.785c0.351-0.427,0.289-1.057-0.138-1.407c-0.026-0.021-0.053-0.041-0.08-0.06l-4.729-3.156 C15.21,14.145,14.761,14.188,14.474,14.474z " stroke="#b9d40d" fill="none" stroke-width="1" stroke-linecap="round" stroke-linejoin="round"></path>
    <path d="M 15.5,12c0,0.405,0.286,0.754,0.684,0.833l5.574,1.108 c0.542,0.109,1.069-0.242,1.177-0.784c0.007-0.033,0.012-0.067,0.015-0.1c0.033-0.348,0.051-0.7,0.051-1.055l0,0 c0.001-0.353-0.016-0.706-0.051-1.057c-0.054-0.55-0.543-0.952-1.093-0.898c-0.033,0.003-0.066,0.008-0.098,0.015l-5.579,1.107 C15.784,11.248,15.499,11.596,15.5,12z " stroke="#b9d40d" fill="none" stroke-width="1" stroke-linecap="round" stroke-linejoin="round"></path>
    <path d="M 14.475,9.523c0.286,0.287,0.735,0.331,1.072,0.106l4.725-3.158 c0.46-0.305,0.585-0.926,0.28-1.386C20.532,5.055,20.511,5.027,20.489,5c-0.223-0.27-0.459-0.531-0.711-0.783 c-0.249-0.251-0.511-0.489-0.785-0.714c-0.427-0.35-1.057-0.288-1.407,0.139c-0.021,0.026-0.041,0.053-0.06,0.08l-3.157,4.73 C14.144,8.789,14.189,9.237,14.475,9.523z" stroke="#b9d40d" fill="none" stroke-width="1" stroke-linecap="round" stroke-linejoin="round"></path>
  </g>
</svg>
