<?xml version="1.0" encoding="UTF-8"?>
<svg xmlns="http://www.w3.org/2000/svg" xmlns:xlink="http://www.w3.org/1999/xlink" xmlns:svgjs="http://svgjs.com/svgjs" version="1.1" viewBox="0 0 64 64" height="64" width="64">
  <title>Exported from Streamline App (https://app.streamlineicons.com)</title>
  <g transform="matrix(2.6666666666666665,0,0,2.6666666666666665,0,0)">
    <path d="M 23,12c0.276,0,0.5,0.224,0.5,0.5V20c0,1.105-0.895,2-2,2h-19c-1.105,0-2-0.895-2-2V4c0-1.105,0.895-2,2-2H13 c0.276,0,0.5,0.224,0.5,0.5V11c0,0.552,0.448,1,1,1H23z " stroke="#b9d40d" fill="none" stroke-width="1" stroke-linecap="round" stroke-linejoin="round"></path>
    <path d="M 0.5,7h13 " stroke="#b9d40d" fill="none" stroke-width="1" stroke-linecap="round" stroke-linejoin="round"></path>
    <path d="M 4,4.25c0.138,0,0.25,0.112,0.25,0.25S4.138,4.75,4,4.75 c-0.138,0-0.25-0.112-0.25-0.25S3.862,4.25,4,4.25 " stroke="#b9d40d" fill="none" stroke-width="1" stroke-linecap="round" stroke-linejoin="round"></path>
    <path d="M 7,4.25c0.138,0,0.25,0.112,0.25,0.25S7.138,4.75,7,4.75S6.75,4.638,6.75,4.5 S6.862,4.25,7,4.25 " stroke="#b9d40d" fill="none" stroke-width="1" stroke-linecap="round" stroke-linejoin="round"></path>
    <path d="M 10,4.25c0.138,0,0.25,0.112,0.25,0.25S10.138,4.75,10,4.75S9.75,4.638,9.75,4.5S9.862,4.25,10,4.25 " stroke="#b9d40d" fill="none" stroke-width="1" stroke-linecap="round" stroke-linejoin="round"></path>
    <path d="M 13.5,8h10 " stroke="#b9d40d" fill="none" stroke-width="1" stroke-linecap="round" stroke-linejoin="round"></path>
    <path d="M 13.5,4h10 " stroke="#b9d40d" fill="none" stroke-width="1" stroke-linecap="round" stroke-linejoin="round"></path>
    <path d="M 21.5,2v10 " stroke="#b9d40d" fill="none" stroke-width="1" stroke-linecap="round" stroke-linejoin="round"></path>
    <path d="M 17.5,2v10" stroke="#b9d40d" fill="none" stroke-width="1" stroke-linecap="round" stroke-linejoin="round"></path>
  </g>
</svg>
