<?xml version="1.0" encoding="UTF-8"?>
<svg xmlns="http://www.w3.org/2000/svg" xmlns:xlink="http://www.w3.org/1999/xlink" xmlns:svgjs="http://svgjs.com/svgjs" version="1.1" viewBox="0 0 64 64" height="64" width="64">
  <title>Exported from Streamline App (https://app.streamlineicons.com)</title>
  <g transform="matrix(2.6666666666666665,0,0,2.6666666666666665,0,0)">
    <path d="M 12,20.25H1.5c-0.552,0-1-0.448-1-1v-16c0-0.552,0.448-1,1-1h19c0.552,0,1,0.448,1,1v6.9 " stroke="#b9d40d" fill="none" stroke-width="1" stroke-linecap="round" stroke-linejoin="round"></path>
    <path d="M 2.5,10.75l1,1l3-3 " stroke="#b9d40d" fill="none" stroke-width="1" stroke-linecap="round" stroke-linejoin="round"></path>
    <path d="M 8,11.25h3.5 " stroke="#b9d40d" fill="none" stroke-width="1" stroke-linecap="round" stroke-linejoin="round"></path>
    <path d="M 9.5,9.25h3 " stroke="#b9d40d" fill="none" stroke-width="1" stroke-linecap="round" stroke-linejoin="round"></path>
    <path d="M 0.5,6.25h21 " stroke="#b9d40d" fill="none" stroke-width="1" stroke-linecap="round" stroke-linejoin="round"></path>
    <path d="M 17.029,10.25c2.501,0,4.529,2.028,4.529,4.529s-2.028,4.529-4.529,4.529 S12.5,17.28,12.5,14.779S14.528,10.25,17.029,10.25z " stroke="#b9d40d" fill="none" stroke-width="1" stroke-linecap="round" stroke-linejoin="round"></path>
    <path d="M 23.5,21.25l-3.248-3.248" stroke="#b9d40d" fill="none" stroke-width="1" stroke-linecap="round" stroke-linejoin="round"></path>
  </g>
</svg>
