<?xml version="1.0" encoding="UTF-8"?>
<svg xmlns="http://www.w3.org/2000/svg" xmlns:xlink="http://www.w3.org/1999/xlink" xmlns:svgjs="http://svgjs.com/svgjs" version="1.1" viewBox="0 0 64 64" height="64" width="64">
  <title>Exported from Streamline App (https://app.streamlineicons.com)</title>
  <g transform="matrix(2.6666666666666665,0,0,2.6666666666666665,0,0)">
    <path d="M 11.024,15.455l5.998-9.521l2.721,1.714l-5.998,9.521L11.024,15.455z " stroke="#b9d40d" fill="none" stroke-width="1" stroke-linecap="round" stroke-linejoin="round"></path>
    <path d="M 22.749,2.894 c0.75,0.474,0.975,1.466,0.501,2.217c0,0-0.001,0.001-0.001,0.001l-3.429,5.44 " stroke="#b9d40d" fill="none" stroke-width="1" stroke-linecap="round" stroke-linejoin="round"></path>
    <path d="M 17.028,5.94l3.43-5.44l2.719,1.714l-3.43,5.44 L17.028,5.94z " stroke="#b9d40d" fill="none" stroke-width="1" stroke-linecap="round" stroke-linejoin="round"></path>
    <path d="M 10.244,19.718l3.503-2.543l-2.72-1.715L10.244,19.718z " stroke="#b9d40d" fill="none" stroke-width="1" stroke-linecap="round" stroke-linejoin="round"></path>
    <path d="M 0.5,23.5l3-3l2,2l2-2L9,22" stroke="#b9d40d" fill="none" stroke-width="1" stroke-linecap="round" stroke-linejoin="round"></path>
  </g>
</svg>
