<?xml version="1.0" encoding="UTF-8"?>
<svg xmlns="http://www.w3.org/2000/svg" xmlns:xlink="http://www.w3.org/1999/xlink" xmlns:svgjs="http://svgjs.com/svgjs" version="1.1" viewBox="0 0 64 64" height="64" width="64">
  <title>Exported from Streamline App (https://app.streamlineicons.com)</title>
  <g transform="matrix(2.6666666666666665,0,0,2.6666666666666665,0,0)">
    <path d="M 10.475,16h-2.5c-0.828,0-1.5-0.672-1.5-1.5l0,0v-5c0-0.828,0.672-1.5,1.5-1.5h2.5 " stroke="#b9d40d" fill="none" stroke-width="1" stroke-linecap="round" stroke-linejoin="round"></path>
    <path d="M 6.475,12h2.5 " stroke="#b9d40d" fill="none" stroke-width="1" stroke-linecap="round" stroke-linejoin="round"></path>
    <path d="M 4.5,8H2.354 C1.33,8,0.5,8.831,0.501,9.855c0,0.702,0.397,1.343,1.024,1.657l1.95,0.976c0.916,0.458,1.287,1.572,0.828,2.488 C3.989,15.603,3.348,16,2.646,16H0.5 " stroke="#b9d40d" fill="none" stroke-width="1" stroke-linecap="round" stroke-linejoin="round"></path>
    <path d="M 18,6.5c3.038,0,5.5,2.462,5.5,5.5s-2.462,5.5-5.5,5.5s-5.5-2.462-5.5-5.5S14.962,6.5,18,6.5z " stroke="#b9d40d" fill="none" stroke-width="1" stroke-linecap="round" stroke-linejoin="round"></path>
    <path d="M 22.611,9h-2.549c-1.139,0.025-2.042,0.969-2.017,2.108c0.024,1.104,0.913,1.993,2.017,2.017h0.688 c-0.001,1.014,0.557,1.946,1.45,2.425 " stroke="#b9d40d" fill="none" stroke-width="1" stroke-linecap="round" stroke-linejoin="round"></path>
    <path d="M 12.591,13H15.5c0.552,0,1,0.448,1,1v3.293" stroke="#b9d40d" fill="none" stroke-width="1" stroke-linecap="round" stroke-linejoin="round"></path>
  </g>
</svg>
