<?xml version="1.0" encoding="UTF-8"?>
<svg xmlns="http://www.w3.org/2000/svg" xmlns:xlink="http://www.w3.org/1999/xlink" xmlns:svgjs="http://svgjs.com/svgjs" version="1.1" viewBox="0 0 64 64" height="64" width="64">
  <title>Exported from Streamline App (https://app.streamlineicons.com)</title>
  <g transform="matrix(2.6666666666666665,0,0,2.6666666666666665,0,0)">
    <path d="M 23.5,23.5l-2.481-3.434L21,15.5c0.042-1.778-2.581-3.863-4.5-5.5 " stroke="#7cb854" fill="none" stroke-width="1" stroke-linecap="round" stroke-linejoin="round"></path>
    <path d="M 18.523,17.5l-2.69-2.768 c-0.425-0.404-1.096-0.387-1.5,0.038c-0.389,0.41-0.389,1.052,0,1.462l2.69,3.268V21c0,0.961,1.56,2.5,1.56,2.5 " stroke="#7cb854" fill="none" stroke-width="1" stroke-linecap="round" stroke-linejoin="round"></path>
    <path d="M 13.5,20.5h-12 c-0.552,0-1-0.448-1-1v-18c0-0.552,0.448-1,1-1h14c0.552,0,1,0.448,1,1V15 " stroke="#7cb854" fill="none" stroke-width="1" stroke-linecap="round" stroke-linejoin="round"></path>
    <path d="M 13.5,18.5H4c-0.276,0-0.5-0.224-0.5-0.5v-6 c0-0.276,0.224-0.5,0.5-0.5h9c0.276,0,0.5,0.224,0.5,0.5v1.5 " stroke="#7cb854" fill="none" stroke-width="1" stroke-linecap="round" stroke-linejoin="round"></path>
    <path d="M 3.504,13.5h10 " stroke="#7cb854" fill="none" stroke-width="1" stroke-linecap="round" stroke-linejoin="round"></path>
    <path d="M 6.504,11.5v7 " stroke="#7cb854" fill="none" stroke-width="1" stroke-linecap="round" stroke-linejoin="round"></path>
    <path d="M 9.504,11.5v7 " stroke="#7cb854" fill="none" stroke-width="1" stroke-linecap="round" stroke-linejoin="round"></path>
    <path d="M 9.504,4.5h4 " stroke="#7cb854" fill="none" stroke-width="1" stroke-linecap="round" stroke-linejoin="round"></path>
    <path d="M 9.504,6.5 h2.5 " stroke="#7cb854" fill="none" stroke-width="1" stroke-linecap="round" stroke-linejoin="round"></path>
    <path d="M 5.504,8.5v1 " stroke="#7cb854" fill="none" stroke-width="1" stroke-linecap="round" stroke-linejoin="round"></path>
    <path d="M 5.504,3.5v1 " stroke="#7cb854" fill="none" stroke-width="1" stroke-linecap="round" stroke-linejoin="round"></path>
    <path d="M 3.5,8.5h3c0.552,0,1-0.448,1-1s-0.448-1-1-1h-2c-0.552,0-1-0.448-1-1s0.448-1,1-1h3" stroke="#7cb854" fill="none" stroke-width="1" stroke-linecap="round" stroke-linejoin="round"></path>
  </g>
</svg>
