<?xml version="1.0" encoding="UTF-8"?>
<svg xmlns="http://www.w3.org/2000/svg" xmlns:xlink="http://www.w3.org/1999/xlink" xmlns:svgjs="http://svgjs.com/svgjs" version="1.1" viewBox="0 0 64 64" height="64" width="64">
  <title>Exported from Streamline App (https://app.streamlineicons.com)</title>
  <g transform="matrix(2.6666666666666665,0,0,2.6666666666666665,0,0)">
    <path d="M 23.504,16.5v6c0,0.552-0.448,1-1,1h-9c-0.552,0-1-0.448-1-1v-6c0-0.552,0.448-1,1-1h9 C23.056,15.5,23.504,15.948,23.504,16.5z " stroke="#7cb854" fill="none" stroke-width="1" stroke-linecap="round" stroke-linejoin="round"></path>
    <path d="M 23.504,18.5h-11 " stroke="#7cb854" fill="none" stroke-width="1" stroke-linecap="round" stroke-linejoin="round"></path>
    <path d="M 20.004,21.5h1.5 " stroke="#7cb854" fill="none" stroke-width="1" stroke-linecap="round" stroke-linejoin="round"></path>
    <path d="M 2.504,0.5h14c1.105,0,2,0.895,2,2v9 c0,1.105-0.895,2-2,2h-14c-1.105,0-2-0.895-2-2v-9C0.504,1.395,1.399,0.5,2.504,0.5z " stroke="#7cb854" fill="none" stroke-width="1" stroke-linecap="round" stroke-linejoin="round"></path>
    <path d="M 9.504,13.5v3 " stroke="#7cb854" fill="none" stroke-width="1" stroke-linecap="round" stroke-linejoin="round"></path>
    <path d="M 6.504,16.5h4 " stroke="#7cb854" fill="none" stroke-width="1" stroke-linecap="round" stroke-linejoin="round"></path>
    <path d="M 0.504,10.5h18 " stroke="#7cb854" fill="none" stroke-width="1" stroke-linecap="round" stroke-linejoin="round"></path>
    <path d="M 9.504,7.501v1 " stroke="#7cb854" fill="none" stroke-width="1" stroke-linecap="round" stroke-linejoin="round"></path>
    <path d="M 9.504,2.501v1 " stroke="#7cb854" fill="none" stroke-width="1" stroke-linecap="round" stroke-linejoin="round"></path>
    <path d="M 7.5,7.5h3c0.552,0,1-0.448,1-1s-0.448-1-1-1h-2c-0.552,0-1-0.448-1-1s0.448-1,1-1h3" stroke="#7cb854" fill="none" stroke-width="1" stroke-linecap="round" stroke-linejoin="round"></path>
  </g>
</svg>
