<?xml version="1.0" encoding="UTF-8"?>
<svg xmlns="http://www.w3.org/2000/svg" xmlns:xlink="http://www.w3.org/1999/xlink" xmlns:svgjs="http://svgjs.com/svgjs" version="1.1" viewBox="0 0 64 64" height="64" width="64">
  <title>Exported from Streamline App (https://app.streamlineicons.com)</title>
  <g transform="matrix(2.6666666666666665,0,0,2.6666666666666665,0,0)">
    <path d="M 11.504,0.5c1.519,0,2.75,1.231,2.75,2.75S13.023,6,11.504,6s-2.75-1.231-2.75-2.75S9.985,0.5,11.504,0.5z " stroke="#00875e" fill="none" stroke-width="1" stroke-linecap="round" stroke-linejoin="round"></path>
    <path d="M 14.87,9.537c-0.528-1.859-2.464-2.939-4.323-2.411C9.393,7.454,8.487,8.35,8.147,9.5 " stroke="#00875e" fill="none" stroke-width="1" stroke-linecap="round" stroke-linejoin="round"></path>
    <path d="M 7.004,11.5h9 " stroke="#00875e" fill="none" stroke-width="1" stroke-linecap="round" stroke-linejoin="round"></path>
    <path d="M 8.213,14.451L8.004,11.5h7 l-0.211,2.981 " stroke="#00875e" fill="none" stroke-width="1" stroke-linecap="round" stroke-linejoin="round"></path>
    <path d="M 11.5,13.772c-0.138,0-0.25,0.112-0.25,0.25s0.112,0.25,0.25,0.25s0.25-0.112,0.25-0.25S11.638,13.772,11.5,13.772 L11.5,13.772 " stroke="#00875e" fill="none" stroke-width="1" stroke-linecap="round" stroke-linejoin="round"></path>
    <path d="M 12.09,16c1.298,0,2.35,1.052,2.35,2.35s-1.052,2.35-2.35,2.35s-2.35-1.052-2.35-2.35S10.792,16,12.09,16z " stroke="#00875e" fill="none" stroke-width="1" stroke-linecap="round" stroke-linejoin="round"></path>
    <path d="M 4.698,16 c1.298,0,2.35,1.052,2.35,2.35s-1.052,2.35-2.35,2.35s-2.35-1.052-2.35-2.35S3.4,16,4.698,16z " stroke="#00875e" fill="none" stroke-width="1" stroke-linecap="round" stroke-linejoin="round"></path>
    <path d="M 19.318,16 c1.298,0,2.35,1.052,2.35,2.35s-1.052,2.35-2.35,2.35s-2.35-1.052-2.35-2.35S18.02,16,19.318,16z " stroke="#00875e" fill="none" stroke-width="1" stroke-linecap="round" stroke-linejoin="round"></path>
    <path d="M 23,23.5 c-1.623-2.014-4.571-2.33-6.585-0.707c-0.26,0.21-0.497,0.447-0.707,0.707c-0.919-1.098-2.276-1.734-3.708-1.74 " stroke="#00875e" fill="none" stroke-width="1" stroke-linecap="round" stroke-linejoin="round"></path>
    <path d="M 1,23.5 c1.623-2.014,4.571-2.33,6.585-0.707c0.26,0.21,0.497,0.447,0.707,0.707c0.919-1.098,2.276-1.734,3.708-1.74" stroke="#00875e" fill="none" stroke-width="1" stroke-linecap="round" stroke-linejoin="round"></path>
  </g>
</svg>
