<svg xmlns="http://www.w3.org/2000/svg" version="1.1" xmlns:xlink="http://www.w3.org/1999/xlink" xmlns:svgjs="http://svgjs.com/svgjs" viewBox="0 0 24 24" height="24" width="24"><title>Exported from Streamline App (https://app.streamlineicons.com)</title><g transform="matrix(1,0,0,1,0,0)"><path d="M 3.852,5h9l0,0v14l0,0h-8c-0.552,0-1-0.448-1-1C3.852,18,3.852,5,3.852,5z " stroke="#000000" fill="none" stroke-width="1" stroke-linecap="round" stroke-linejoin="round"></path><path d="M 12.852,5h8 " stroke="#000000" fill="none" stroke-width="1" stroke-linecap="round" stroke-linejoin="round"></path><path d="M 20.852,11v7 c0,0.552-0.448,1-1,1h-7 " stroke="#000000" fill="none" stroke-width="1" stroke-linecap="round" stroke-linejoin="round"></path><path d="M 12.852,5l2.248,5.385C15.255,10.757,15.619,11,16.023,11H22.6c0.167,0,0.323-0.084,0.416-0.223 c0.092-0.139,0.109-0.315,0.045-0.469L20.852,5 " stroke="#000000" fill="none" stroke-width="1" stroke-linecap="round" stroke-linejoin="round"></path><path d="M 3.852,5l-2.873,5.145c-0.161,0.267-0.075,0.613,0.192,0.774 C1.259,10.972,1.36,11,1.463,11h2.389" stroke="#000000" fill="none" stroke-width="1" stroke-linecap="round" stroke-linejoin="round"></path></g></svg>