<svg xmlns="http://www.w3.org/2000/svg" version="1.1" xmlns:xlink="http://www.w3.org/1999/xlink" xmlns:svgjs="http://svgjs.com/svgjs" viewBox="0 0 24 24" height="24" width="24"><title>Exported from Streamline App (https://app.streamlineicons.com)</title><g transform="matrix(1,0,0,1,0,0)"><path d="M 8,6.157C7.219,5.376,7.219,4.11,7.999,3.329c0,0,0,0,0.001-0.001C8.781,2.547,8.781,1.281,8,0.5 " stroke="#000000" fill="none" stroke-width="1" stroke-linecap="round" stroke-linejoin="round"></path><path d="M 12,6.157 c-0.781-0.781-0.781-2.047-0.001-2.828c0,0,0,0,0.001-0.001c0.781-0.781,0.781-2.047,0-2.828 " stroke="#000000" fill="none" stroke-width="1" stroke-linecap="round" stroke-linejoin="round"></path><path d="M 16,6.157 c-0.781-0.781-0.781-2.047-0.001-2.828c0,0,0,0,0.001-0.001c0.781-0.781,0.781-2.047,0-2.828 " stroke="#000000" fill="none" stroke-width="1" stroke-linecap="round" stroke-linejoin="round"></path><path d="M 12,8.542c3.59,0,6.5,1.343,6.5,3 s-2.91,3-6.5,3s-6.5-1.343-6.5-3S8.41,8.542,12,8.542z " stroke="#000000" fill="none" stroke-width="1" stroke-linecap="round" stroke-linejoin="round"></path><path d="M 18.5,11.542c0.025,2.24-0.37,4.464-1.165,6.558 c-0.114,0.293-0.296,0.554-0.53,0.763c-1.34,1.133-3.051,1.73-4.805,1.679c-1.752,0.05-3.461-0.548-4.8-1.679 c-0.235-0.209-0.416-0.47-0.53-0.763c-0.797-2.094-1.194-4.318-1.17-6.558 " stroke="#000000" fill="none" stroke-width="1" stroke-linecap="round" stroke-linejoin="round"></path><path d="M 18.219,14.886C19.933,15.8,21,17.079,21,18.5 c0,2.761-4.029,5-9,5s-9-2.239-9-5c0-1.421,1.067-2.7,2.78-3.614 " stroke="#000000" fill="none" stroke-width="1" stroke-linecap="round" stroke-linejoin="round"></path><path d="M 7.526,13.718C7.24,12.516,9.353,11.5,12,11.5 s4.76,1.016,4.474,2.218" stroke="#000000" fill="none" stroke-width="1" stroke-linecap="round" stroke-linejoin="round"></path></g></svg>