<svg xmlns="http://www.w3.org/2000/svg" version="1.1" xmlns:xlink="http://www.w3.org/1999/xlink" xmlns:svgjs="http://svgjs.com/svgjs" viewBox="0 0 64 64" height="64" width="64"><title>Exported from Streamline App (https://app.streamlineicons.com)</title><g transform="matrix(2.6666666666666665,0,0,2.6666666666666665,0,0)"><path d="M 1.5,0.5h21c0.552,0,1,0.448,1,1v21c0,0.552-0.448,1-1,1h-21c-0.552,0-1-0.448-1-1v-21 C0.5,0.948,0.948,0.5,1.5,0.5z " stroke="#b9d40d" fill="none" stroke-width="1" stroke-linecap="round" stroke-linejoin="round"></path><path d="M 8,6.5c2.485,0,4.5,2.015,4.5,4.5s-2.015,4.5-4.5,4.5S3.5,13.485,3.5,11S5.515,6.5,8,6.5z " stroke="#b9d40d" fill="none" stroke-width="1" stroke-linecap="round" stroke-linejoin="round"></path><path d="M 14.5,3.5 h-5c-0.552,0-1,0.448-1,1v2.028c2.089,0.234,3.738,1.883,3.972,3.972H14.5c0.552,0,1-0.448,1-1v-5C15.5,3.948,15.052,3.5,14.5,3.5z " stroke="#b9d40d" fill="none" stroke-width="1" stroke-linecap="round" stroke-linejoin="round"></path><path d="M 18.5,6.5h3 " stroke="#b9d40d" fill="none" stroke-width="1" stroke-linecap="round" stroke-linejoin="round"></path><path d="M 18.5,8.5h2 " stroke="#b9d40d" fill="none" stroke-width="1" stroke-linecap="round" stroke-linejoin="round"></path><path d="M 3.5,18.5h9 " stroke="#b9d40d" fill="none" stroke-width="1" stroke-linecap="round" stroke-linejoin="round"></path><path d="M 3.5,20.5h3 " stroke="#b9d40d" fill="none" stroke-width="1" stroke-linecap="round" stroke-linejoin="round"></path><path d="M 14.5,13l3.32,2.767 " stroke="#b9d40d" fill="none" stroke-width="1" stroke-linecap="round" stroke-linejoin="round"></path><path d="M 18.5,15.5h2c0.552,0,1,0.448,1,1v4c0,0.552-0.448,1-1,1h-2 c-0.552,0-1-0.448-1-1v-4C17.5,15.948,17.948,15.5,18.5,15.5z " stroke="#b9d40d" fill="none" stroke-width="1" stroke-linecap="round" stroke-linejoin="round"></path><path d="M 8.5,20.5h1 " stroke="#b9d40d" fill="none" stroke-width="1" stroke-linecap="round" stroke-linejoin="round"></path><path d="M 18.5,4.5h3" stroke="#b9d40d" fill="none" stroke-width="1" stroke-linecap="round" stroke-linejoin="round"></path></g></svg>