<?xml version="1.0" encoding="UTF-8"?>
<svg xmlns="http://www.w3.org/2000/svg" xmlns:xlink="http://www.w3.org/1999/xlink" xmlns:svgjs="http://svgjs.com/svgjs" version="1.1" viewBox="0 0 64 64" height="64" width="64">
  <title>Exported from Streamline App (https://app.streamlineicons.com)</title>
  <g transform="matrix(2.6666666666666665,0,0,2.6666666666666665,0,0)">
    <path d="M22.673,17.009l-2.452-2.453c-1.097-1.099-2.877-1.1-3.975-0.004c-0.001,0.001-0.002,0.002-0.004,0.004l-0.5,0.5 c-2.464-2.065-4.741-4.344-6.802-6.811l0.5-0.5c1.096-1.099,1.096-2.879,0-3.978l-2.457-2.45C5.869,0.252,4.114,0.252,3,1.317 L1.66,2.663C0.333,4,0.124,6.084,1.16,7.657c3.995,6.02,9.154,11.18,15.173,15.176c1.578,1.026,3.657,0.818,5-0.5l1.345-1.346 c1.098-1.096,1.1-2.874,0.004-3.973c-0.001-0.001-0.003-0.003-0.004-0.004L22.673,17.009z" stroke="none" fill="#ffffff" stroke-width="0" stroke-linecap="round" stroke-linejoin="round"></path>
  </g>
</svg>
