<svg xmlns="http://www.w3.org/2000/svg" version="1.1" xmlns:xlink="http://www.w3.org/1999/xlink" xmlns:svgjs="http://svgjs.com/svgjs" viewBox="0 0 64 64" height="64" width="64"><title>Exported from Streamline App (https://app.streamlineicons.com)</title><g transform="matrix(2.6666666666666665,0,0,2.6666666666666665,0,0)"><path d="M 12.5,3.5C13.881,3.5,15,4.619,15,6s-1.119,2.5-2.5,2.5S10,7.381,10,6S11.119,3.5,12.5,3.5z " stroke="#b9d40d" fill="none" stroke-width="1" stroke-linecap="round" stroke-linejoin="round"></path><path d="M 16.5,12.5h-8 c0-2.209,1.791-4,4-4S16.5,10.291,16.5,12.5z " stroke="#b9d40d" fill="none" stroke-width="1" stroke-linecap="round" stroke-linejoin="round"></path><path d="M 17.5,3.5h4 " stroke="#b9d40d" fill="none" stroke-width="1" stroke-linecap="round" stroke-linejoin="round"></path><path d="M 19.5,5.5v-4 " stroke="#b9d40d" fill="none" stroke-width="1" stroke-linecap="round" stroke-linejoin="round"></path><path d="M 15.5,19.5h-13 " stroke="#b9d40d" fill="none" stroke-width="1" stroke-linecap="round" stroke-linejoin="round"></path><path d="M 9,21.25c0.138,0,0.25,0.112,0.25,0.25l0,0 c0,0.138-0.112,0.25-0.25,0.25l0,0c-0.138,0-0.25-0.112-0.25-0.25l0,0C8.75,21.362,8.862,21.25,9,21.25 " stroke="#b9d40d" fill="none" stroke-width="1" stroke-linecap="round" stroke-linejoin="round"></path><path d="M 9,21.25L9,21.25 " stroke="#b9d40d" fill="none" stroke-width="1" stroke-linecap="round" stroke-linejoin="round"></path><path d="M 15.5,15 v6.5c0,1.105-0.895,2-2,2h-9c-1.105,0-2-0.895-2-2v-19c0-1.105,0.895-2,2-2H11" stroke="#b9d40d" fill="none" stroke-width="1" stroke-linecap="round" stroke-linejoin="round"></path></g></svg>