<svg xmlns="http://www.w3.org/2000/svg" version="1.1" xmlns:xlink="http://www.w3.org/1999/xlink" xmlns:svgjs="http://svgjs.com/svgjs" viewBox="0 0 64 64" height="64" width="64"><title>Exported from Streamline App (https://app.streamlineicons.com)</title><g transform="matrix(2.6666666666666665,0,0,2.6666666666666665,0,0)"><path d="M 11.5,14.5v7c0,1.105-0.895,2-2,2h-7c-1.105,0-2-0.895-2-2v-15c0-1.105,0.895-2,2-2h4 " stroke="#b9d40d" fill="none" stroke-width="1" stroke-linecap="round" stroke-linejoin="round"></path><path d="M 6.5,8.5h-6 " stroke="#b9d40d" fill="none" stroke-width="1" stroke-linecap="round" stroke-linejoin="round"></path><path d="M 11.5,19.5 h-11 " stroke="#b9d40d" fill="none" stroke-width="1" stroke-linecap="round" stroke-linejoin="round"></path><path d="M 4.5,6.5h2 " stroke="#b9d40d" fill="none" stroke-width="1" stroke-linecap="round" stroke-linejoin="round"></path><path d="M 23.5,8c0,0.828-0.672,1.5-1.5,1.5h-5.5l-3,3v-3H10C9.172,9.5,8.5,8.828,8.5,8V2c0-0.828,0.672-1.5,1.5-1.5h12 c0.828,0,1.5,0.672,1.5,1.5V8z " stroke="#b9d40d" fill="none" stroke-width="1" stroke-linecap="round" stroke-linejoin="round"></path><path d="M 16.25,4.5L16.25,4.5 " stroke="#b9d40d" fill="none" stroke-width="1" stroke-linecap="round" stroke-linejoin="round"></path><path d="M 16.25,4.5C16.112,4.5,16,4.612,16,4.75S16.112,5,16.25,5 s0.25-0.112,0.25-0.25S16.388,4.5,16.25,4.5 " stroke="#b9d40d" fill="none" stroke-width="1" stroke-linecap="round" stroke-linejoin="round"></path><path d="M 19.75,4.5L19.75,4.5 " stroke="#b9d40d" fill="none" stroke-width="1" stroke-linecap="round" stroke-linejoin="round"></path><path d="M 19.75,4.5c-0.138,0-0.25,0.112-0.25,0.25S19.612,5,19.75,5 S20,4.888,20,4.75S19.888,4.5,19.75,4.5 " stroke="#b9d40d" fill="none" stroke-width="1" stroke-linecap="round" stroke-linejoin="round"></path><path d="M 12.75,4.5L12.75,4.5 " stroke="#b9d40d" fill="none" stroke-width="1" stroke-linecap="round" stroke-linejoin="round"></path><path d="M 12.75,4.5c-0.138,0-0.25,0.112-0.25,0.25S12.612,5,12.75,5 S13,4.888,13,4.75S12.888,4.5,12.75,4.5 " stroke="#b9d40d" fill="none" stroke-width="1" stroke-linecap="round" stroke-linejoin="round"></path><path d="M 6,21.25L6,21.25c0.138,0,0.25,0.112,0.25,0.25l0,0c0,0.138-0.112,0.25-0.25,0.25l0,0 c-0.138,0-0.25-0.112-0.25-0.25l0,0C5.75,21.362,5.862,21.25,6,21.25" stroke="#b9d40d" fill="none" stroke-width="1" stroke-linecap="round" stroke-linejoin="round"></path></g></svg>