<svg xmlns="http://www.w3.org/2000/svg" version="1.1" xmlns:xlink="http://www.w3.org/1999/xlink" xmlns:svgjs="http://svgjs.com/svgjs" viewBox="0 0 64 64" height="64" width="64"><title>Exported from Streamline App (https://app.streamlineicons.com)</title><g transform="matrix(2.6666666666666665,0,0,2.6666666666666665,0,0)"><path d="M 19.5,8.75l4,2.75V22c0,0.828-0.672,1.5-1.5,1.5H2c-0.828,0-1.5-0.672-1.5-1.5V11.5l4-2.75 " stroke="#7cb854" fill="none" stroke-width="1" stroke-linecap="round" stroke-linejoin="round"></path><path d="M 3.504,20.5l5-4h7 l5,4 " stroke="#7cb854" fill="none" stroke-width="1" stroke-linecap="round" stroke-linejoin="round"></path><path d="M 23.504,11.5l-6,4 " stroke="#7cb854" fill="none" stroke-width="1" stroke-linecap="round" stroke-linejoin="round"></path><path d="M 0.504,11.5l6,4 " stroke="#7cb854" fill="none" stroke-width="1" stroke-linecap="round" stroke-linejoin="round"></path><path d="M 19.5,14.166V1.5c0-0.552-0.448-1-1-1h-13c-0.552,0-1,0.448-1,1v12.666 " stroke="#7cb854" fill="none" stroke-width="1" stroke-linecap="round" stroke-linejoin="round"></path><path d="M 7.004,4.5h4.5 " stroke="#7cb854" fill="none" stroke-width="1" stroke-linecap="round" stroke-linejoin="round"></path><path d="M 7.004,6.5h4.5 " stroke="#7cb854" fill="none" stroke-width="1" stroke-linecap="round" stroke-linejoin="round"></path><path d="M 7.004,8.5h2.5 " stroke="#7cb854" fill="none" stroke-width="1" stroke-linecap="round" stroke-linejoin="round"></path><path d="M 15.504,8.5v1 " stroke="#7cb854" fill="none" stroke-width="1" stroke-linecap="round" stroke-linejoin="round"></path><path d="M 15.504,3.5v1 " stroke="#7cb854" fill="none" stroke-width="1" stroke-linecap="round" stroke-linejoin="round"></path><path d="M 13.5,8.5h3c0.552,0,1-0.448,1-1s-0.448-1-1-1h-2 c-0.552,0-1-0.448-1-1s0.448-1,1-1h3" stroke="#7cb854" fill="none" stroke-width="1" stroke-linecap="round" stroke-linejoin="round"></path></g></svg>