<svg xmlns="http://www.w3.org/2000/svg" version="1.1" xmlns:xlink="http://www.w3.org/1999/xlink" xmlns:svgjs="http://svgjs.com/svgjs" viewBox="0 0 64 64" height="64" width="64"><title>Exported from Streamline App (https://app.streamlineicons.com)</title><g transform="matrix(2.6666666666666665,0,0,2.6666666666666665,0,0)"><path d="M 5,15.281H3.618c-0.379,0-0.725,0.214-0.894,0.553L0.5,20.281h23l-2.224-4.447 c-0.169-0.339-0.515-0.553-0.894-0.553H18 " stroke="#b9d40d" fill="none" stroke-width="1" stroke-linecap="round" stroke-linejoin="round"></path><path d="M 0.5,20.281l0.311,1.243c0.111,0.445,0.511,0.757,0.97,0.757h20.438 c0.459,0,0.859-0.312,0.97-0.757l0.311-1.243 " stroke="#b9d40d" fill="none" stroke-width="1" stroke-linecap="round" stroke-linejoin="round"></path><path d="M 8.5,15.281c-0.118-1.948,0.409-3.882,1.5-5.5c0.468-0.531,0.969-1.032,1.5-1.5h-4 c-0.672,0-0.791-0.36-1-1c-0.049-0.404,0.148-0.797,0.5-1l3.5-2.5V1.719c0,0,2,1.062,3,1.562c2.21,1.105,2.046,2.053,2.006,3.2 c-0.007,0.199-0.073,0.391-0.19,0.552L13,10.219c1.478,1.284,2.379,3.108,2.5,5.062 " stroke="#b9d40d" fill="none" stroke-width="1" stroke-linecap="round" stroke-linejoin="round"></path><path d="M 16.88,17.683 c0.055,0.271-0.119,0.535-0.39,0.59c-0.033,0.007-0.066,0.01-0.1,0.01H7.61c-0.276,0-0.5-0.224-0.5-0.5 c0-0.034,0.003-0.067,0.01-0.1l0.38-1.9c0.136-0.408,0.57-0.5,1-0.5h7c0.43,0,0.864,0.092,1,0.5L16.88,17.683z " stroke="#b9d40d" fill="none" stroke-width="1" stroke-linecap="round" stroke-linejoin="round"></path><path d="M 19.75,17.281 L19.75,17.281c0.138,0,0.25,0.112,0.25,0.25l0,0c0,0.138-0.112,0.25-0.25,0.25l0,0c-0.138,0-0.25-0.112-0.25-0.25l0,0 C19.5,17.393,19.612,17.281,19.75,17.281" stroke="#b9d40d" fill="none" stroke-width="1" stroke-linecap="round" stroke-linejoin="round"></path></g></svg>