<svg xmlns="http://www.w3.org/2000/svg" version="1.1" xmlns:xlink="http://www.w3.org/1999/xlink" xmlns:svgjs="http://svgjs.com/svgjs" viewBox="0 0 64 64" height="64" width="64"><title>Exported from Streamline App (https://app.streamlineicons.com)</title><g transform="matrix(2.6666666666666665,0,0,2.6666666666666665,0,0)"><path d="M 16.07,18.971L20.5,17.5c1.111-0.329,2.309,0.07,3,1c-12.229,6.113-8.272,6.077-19,2.5l-4,2.5 " stroke="#00875e" fill="none" stroke-width="1" stroke-linecap="round" stroke-linejoin="round"></path><path d="M 9.5,19.5H15 c0.552,0.099,1.08-0.268,1.18-0.82s-0.268-1.08-0.82-1.18c-0.119-0.021-0.24-0.021-0.359,0h-3c-1.185-1.223-2.798-1.94-4.5-2h-3 l-4,2 " stroke="#00875e" fill="none" stroke-width="1" stroke-linecap="round" stroke-linejoin="round"></path><path d="M 18,14c0.957-0.958,1.496-2.255,1.5-3.609c0-3.449-2.8-4.865-4.068-5.613c-0.239-0.139-0.32-0.445-0.181-0.684 c0.003-0.006,0.007-0.011,0.01-0.016l1.761-2.817c0.144-0.236,0.07-0.543-0.165-0.687C16.779,0.526,16.691,0.501,16.6,0.5h-6.2 c-0.276,0-0.5,0.224-0.5,0.5c0,0.094,0.026,0.186,0.076,0.265l1.742,2.788c0.146,0.234,0.075,0.543-0.16,0.689 c-0.011,0.007-0.022,0.013-0.033,0.019c-1.264,0.661-4.027,2.1-4.027,5.63c-0.004,1.11,0.346,2.191,1,3.088 " stroke="#00875e" fill="none" stroke-width="1" stroke-linecap="round" stroke-linejoin="round"></path><path d="M 13.504,11.5v1 " stroke="#00875e" fill="none" stroke-width="1" stroke-linecap="round" stroke-linejoin="round"></path><path d="M 13.504,6.5v1 " stroke="#00875e" fill="none" stroke-width="1" stroke-linecap="round" stroke-linejoin="round"></path><path d="M 11.5,11.5h3c0.552,0,1-0.448,1-1s-0.448-1-1-1h-2c-0.552,0-1-0.448-1-1s0.448-1,1-1h3" stroke="#00875e" fill="none" stroke-width="1" stroke-linecap="round" stroke-linejoin="round"></path></g></svg>